<?xml version="1.0" encoding="UTF-8" standalone="no"?>
<!DOCTYPE svg PUBLIC "-//W3C//DTD SVG 1.1//EN" "http://www.w3.org/Graphics/SVG/1.1/DTD/svg11.dtd">
<svg width="100%" height="100%" viewBox="0 0 2396 2396" version="1.1" xmlns="http://www.w3.org/2000/svg" xmlns:xlink="http://www.w3.org/1999/xlink" xml:space="preserve" xmlns:serif="http://www.serif.com/" style="fill-rule:evenodd;clip-rule:evenodd;">
    <g id="Layer-1" serif:id="Layer 1" transform="matrix(4.16667,0,0,4.16667,-26.6458,-390.571)">
        <g transform="matrix(1,0,0,1,0,-213.305)">
            <path d="M294.292,400.463L294.076,400.463C280.18,530.855 178.299,648.721 82.971,735.985C80.883,704.664 70.372,676.295 55.251,653.401C72.387,666.791 84.771,688.463 95.284,709.344C223.299,590.543 282.124,459.503 294.003,319.32C306.82,472.319 381.195,605.951 492.508,709.344C503.02,688.463 515.477,666.791 532.539,653.401C517.42,676.295 506.908,704.664 504.891,735.985C409.564,648.721 308.188,530.855 294.292,400.463Z" style="fill:rgb(210,172,103);stroke:rgb(35,31,32);stroke-width:1px;"/>
        </g>
        <g transform="matrix(1,0,0,1,0,380.795)">
            <path d="M250.731,225.273L288.387,187.617C291.267,184.666 296.379,184.883 299.547,188.123L336.123,224.697C339.363,227.937 339.578,232.978 336.627,235.93L299.043,273.586C296.09,276.539 291.051,276.322 287.811,273.082L251.235,236.434C247.995,233.266 247.779,228.154 250.731,225.273Z" style="fill:rgb(237,28,36);stroke:rgb(35,31,32);stroke-width:3px;"/>
        </g>
        <g transform="matrix(1,0,0,1,0,178.157)">
            <path d="M250.731,326.595L288.388,288.939C291.268,285.986 296.379,286.202 299.547,289.443L336.123,326.089C339.363,329.259 339.58,334.37 336.627,337.249L299.043,374.905C296.091,377.857 291.051,377.642 287.812,374.402L251.235,337.825C247.996,334.585 247.779,329.546 250.731,326.595Z" style="fill:rgb(46,48,146);stroke:rgb(35,31,32);stroke-width:3px;"/>
        </g>
        <g transform="matrix(1,0,0,1,0,-23.948)">
            <path d="M250.731,427.682L288.388,390.026C291.268,387.074 296.379,387.29 299.547,390.531L336.123,427.178C339.363,430.418 339.58,435.458 336.627,438.41L299.043,475.995C296.091,478.874 291.051,478.659 287.812,475.419L251.235,438.914C247.996,435.675 247.779,430.635 250.731,427.682Z" style="fill:rgb(237,28,36);stroke:rgb(35,31,32);stroke-width:3px;"/>
        </g>
        <g transform="matrix(1,0,0,1,0,279.75)">
            <path d="M199.899,275.762L237.556,238.105C240.507,235.152 245.547,235.369 248.788,238.609L285.436,275.256C288.675,278.496 288.892,283.537 285.939,286.488L248.284,324.145C245.332,327.098 240.292,326.809 237.051,323.641L200.403,286.992C197.235,283.754 196.948,278.713 199.899,275.762Z" style="fill:white;stroke:rgb(35,31,32);stroke-width:3px;"/>
        </g>
        <g transform="matrix(1,0,0,1,0,77.311)">
            <path d="M199.732,376.945L237.389,339.36C240.34,336.408 245.38,336.625 248.621,339.864L285.269,376.441C288.508,379.681 288.725,384.72 285.772,387.673L248.117,425.328C245.165,428.281 240.125,428.064 236.884,424.824L200.236,388.177C197.068,384.937 196.781,379.898 199.732,376.945Z" style="fill:white;stroke:rgb(35,31,32);stroke-width:3px;"/>
        </g>
        <g transform="matrix(1,0,0,1,0,279.75)">
            <path d="M301.424,275.762L339.008,238.105C341.959,235.152 347,235.369 350.24,238.609L386.887,275.256C390.127,278.496 390.344,283.537 387.391,286.488L349.734,324.145C346.783,327.098 341.744,326.809 338.504,323.641L302,286.992C298.76,283.754 298.543,278.713 301.424,275.762Z" style="fill:white;stroke:rgb(35,31,32);stroke-width:3px;"/>
        </g>
        <g transform="matrix(1,0,0,1,0,76.979)">
            <path d="M301.59,377.111L339.174,339.526C342.127,336.574 347.166,336.791 350.406,340.03L387.055,376.607C390.295,379.847 390.51,384.886 387.559,387.839L349.902,425.494C346.951,428.447 341.91,428.23 338.67,424.99L302.166,388.343C298.926,385.103 298.711,380.064 301.59,377.111Z" style="fill:white;stroke:rgb(35,31,32);stroke-width:3px;"/>
        </g>
        <g transform="matrix(1,0,0,1,0,178.157)">
            <path d="M352.18,326.595L389.836,288.939C392.787,285.986 397.828,286.202 401.068,289.443L437.715,326.089C440.955,329.259 441.172,334.37 438.219,337.249L400.564,374.905C397.611,377.857 392.572,377.642 389.332,374.402L352.684,337.825C349.443,334.585 349.227,329.546 352.18,326.595Z" style="fill:rgb(46,48,146);stroke:rgb(35,31,32);stroke-width:3px;"/>
        </g>
        <g transform="matrix(1,0,0,1,0,178.489)">
            <path d="M149.144,326.429L186.799,288.773C189.68,285.82 194.792,286.036 197.959,289.277L234.607,325.923C237.848,329.093 238.063,334.204 235.111,337.083L197.456,374.74C194.503,377.691 189.463,377.476 186.224,374.236L149.647,337.659C146.408,334.419 146.191,329.38 149.144,326.429Z" style="fill:rgb(46,48,146);stroke:rgb(35,31,32);stroke-width:3px;"/>
        </g>
    </g>
</svg>
